<?xml version="1.0" standalone="no"?>
<!DOCTYPE svg PUBLIC "-//W3C//DTD SVG 20010904//EN"
 "http://www.w3.org/TR/2001/REC-SVG-20010904/DTD/svg10.dtd">
<svg version="1.0" xmlns="http://www.w3.org/2000/svg"
 width="700.000000pt" height="700.000000pt" viewBox="0 0 700.000000 700.000000"
 preserveAspectRatio="xMidYMid meet">
<metadata>
Created by potrace 1.14, written by Peter Selinger 2001-2017
</metadata>
<g transform="translate(0.000000,700.000000) scale(0.100000,-0.100000)"
fill="#000000" stroke="none">
<path d="M3319 5236 c-2 -2 -27 -6 -56 -10 -359 -42 -735 -232 -1002 -506
-555 -568 -656 -1440 -246 -2120 105 -175 290 -378 453 -498 177 -131 395
-235 601 -287 165 -42 261 -53 456 -50 105 2 208 6 230 10 376 63 698 222 955
470 104 100 111 113 23 42 -226 -181 -507 -297 -808 -332 -52 -6 -268 -7 -320
-1 -282 32 -554 138 -775 303 -107 80 -275 253 -348 360 -34 50 -62 94 -62 97
0 4 -10 23 -23 44 -65 106 -156 363 -171 487 -4 28 -9 70 -13 95 -11 75 -5
289 11 395 34 224 120 446 245 631 59 86 99 135 196 239 37 39 163 143 222
182 146 99 330 182 493 221 375 91 744 50 1080 -118 104 -52 231 -135 302
-198 57 -50 41 -26 -32 48 -173 176 -425 332 -670 413 -192 64 -290 80 -526
84 -115 2 -212 2 -215 -1z"/>
<path d="M3748 5015 c-2 -2 -43 -5 -93 -8 -310 -20 -615 -143 -853 -345 -63
-53 -155 -142 -147 -142 2 0 45 31 96 70 167 125 398 221 592 246 23 3 53 7
67 10 14 2 77 4 141 4 238 1 472 -63 679 -184 l61 -36 241 0 241 0 -18 20
c-32 35 -176 134 -265 182 -73 40 -150 73 -250 108 -86 31 -235 60 -335 66
-44 3 -97 6 -117 8 -21 2 -39 2 -40 1z"/>
<path d="M4147 4243 c-2 -5 -3 -195 -2 -423 1 -337 3 -414 14 -412 7 1 90 60
185 130 94 70 231 172 304 226 72 54 132 104 132 110 0 7 -20 39 -45 70 -51
67 -55 78 -21 72 14 -2 34 -2 45 1 20 5 21 13 21 119 l0 114 -314 0 c-173 0
-317 -3 -319 -7z"/>
<path d="M3407 4038 c-12 -7 -17 -560 -5 -555 4 1 87 67 184 147 98 80 186
151 195 158 16 11 30 -3 131 -135 l113 -148 3 138 c1 76 1 197 0 270 l-3 131
-303 1 c-167 0 -309 -3 -315 -7z"/>
<path d="M4912 3940 l-73 -5 30 -41 30 -40 -155 -115 c-86 -63 -206 -151 -267
-197 -62 -45 -170 -124 -240 -176 l-129 -94 -74 96 c-133 175 -234 306 -243
315 -5 5 -47 -22 -98 -63 -48 -40 -144 -118 -213 -173 -69 -56 -136 -111 -150
-123 -14 -12 -133 -110 -265 -218 -132 -107 -307 -249 -388 -315 -82 -67 -146
-121 -143 -121 3 0 32 17 63 37 32 21 67 43 78 49 58 32 102 59 674 403 211
128 387 228 390 223 28 -40 323 -422 329 -425 4 -2 228 152 497 344 l490 348
18 -24 c56 -75 47 -86 105 117 29 101 52 188 52 193 0 11 -189 14 -318 5z"/>
<path d="M2650 3349 c0 -384 3 -479 13 -472 6 5 97 79 200 164 104 85 199 161
210 169 12 8 35 27 51 42 17 15 58 48 92 75 34 26 64 55 66 63 2 8 4 110 3
225 l0 210 -318 3 -317 2 0 -481z"/>
<path d="M4455 3131 l-310 -219 0 -262 c0 -144 3 -264 7 -267 5 -2 32 10 61
29 l52 32 240 2 c132 1 248 2 257 3 17 1 18 31 17 451 0 248 -3 450 -8 450 -4
0 -146 -99 -316 -219z"/>
<path d="M3675 3264 c-22 -13 -47 -27 -55 -30 -8 -4 -22 -13 -30 -20 -8 -7
-26 -19 -40 -26 -77 -42 -141 -81 -146 -90 -9 -14 -9 -856 -1 -865 13 -13 273
-5 363 10 98 18 250 62 258 76 3 5 6 132 7 283 l1 275 -118 154 c-101 133
-174 227 -193 251 -4 3 -24 -4 -46 -18z"/>
<path d="M3220 2991 c-39 -24 -188 -114 -269 -161 -14 -8 -88 -53 -163 -98
-128 -77 -138 -85 -138 -113 0 -37 45 -82 170 -168 135 -93 337 -183 431 -193
l34 -3 0 382 c0 249 -4 383 -10 383 -5 0 -30 -13 -55 -29z"/>
<path d="M2670 2456 c57 -60 177 -160 255 -213 200 -134 394 -206 675 -249 39
-6 300 -5 345 1 248 34 454 110 660 244 71 47 83 56 138 103 l32 28 -243 0
-244 0 -59 -35 c-145 -85 -321 -148 -484 -173 -58 -9 -329 -8 -401 1 -216 27
-473 142 -669 300 l-50 41 45 -48z"/>
</g>
</svg>
