<svg id="visual" viewBox="0 0 600 900" width="600" height="900" xmlns="http://www.w3.org/2000/svg" xmlns:xlink="http://www.w3.org/1999/xlink" version="1.1"><rect x="0" y="0" width="600" height="900" fill="#fa4c29"></rect><g transform="translate(291.2895264796006 475.3755415757736)"><path d="M137.4 -245C185.5 -210.2 236.9 -188.4 253.6 -149.7C270.3 -111 252.1 -55.5 240.3 -6.8C228.5 41.8 222.9 83.7 211.8 132C200.7 180.4 184.1 235.2 147.9 259C111.7 282.7 55.8 275.4 5.9 265.1C-44 254.9 -88 241.8 -125.2 218.6C-162.5 195.4 -193 162.2 -210 124.1C-227.1 86 -230.7 43 -236.4 -3.2C-242 -49.5 -249.6 -99 -231.8 -135.8C-214 -172.6 -170.7 -196.7 -127.9 -234.5C-85 -272.2 -42.5 -323.6 1.1 -325.5C44.7 -327.4 89.3 -279.7 137.4 -245" fill="#f53c17"></path></g></svg>